PathFileType	4	(X/Y/Z)	C:/Users/opensim2020/Desktop/walking_exp_matlab/subject01_walking13_straight_03.trc	
DataRate	CameraRate	NumFrames	NumMarkers	Units	OrigDataRate	OrigDataStartFrame	OrigNumFrames	
100.00	100.00	8	42	mm	100.00	1663	128	
Frame#	Time	LFHD			RFHD			LBHD			RBHD			C7			T10			CLAV			STRN			RBAK			LSHO			LUPA			LELB			LFRM			LWRA			LWRB			LFIN			RSHO			RUPA			RELB			RFRM			RWRA			RWRB			RFIN			LASI			RASI			LPSI			RPSI			LTHI			LKNE			LTIB			LANK			LHEE			LTOE			RTHI			RKNE			RTIB			RANK			RHEE			RTOE			*39			*40			*41			
		X1	Y1	Z1	X2	Y2	Z2	X3	Y3	Z3	X4	Y4	Z4	X5	Y5	Z5	X6	Y6	Z6	X7	Y7	Z7	X8	Y8	Z8	X9	Y9	Z9	X10	Y10	Z10	X11	Y11	Z11	X12	Y12	Z12	X13	Y13	Z13	X14	Y14	Z14	X15	Y15	Z15	X16	Y16	Z16	X17	Y17	Z17	X18	Y18	Z18	X19	Y19	Z19	X20	Y20	Z20	X21	Y21	Z21	X22	Y22	Z22	X23	Y23	Z23	X24	Y24	Z24	X25	Y25	Z25	X26	Y26	Z26	X27	Y27	Z27	X28	Y28	Z28	X29	Y29	Z29	X30	Y30	Z30	X31	Y31	Z31	X32	Y32	Z32	X33	Y33	Z33	X34	Y34	Z34	X35	Y35	Z35	X36	Y36	Z36	X37	Y37	Z37	X38	Y38	Z38	X39	Y39	Z39	X40	Y40	Z40	X41	Y41	Z41	X42	Y42	Z42	

65	0.640	-1108.55823	34.73800	1658.50537	-996.01355	47.90442	1661.89893	-1101.84448	-82.53418	1617.66260	-981.70703	-71.52768	1619.87903	-1064.64783	-122.93501	1422.17957	-1056.91833	-161.52843	1126.21252	-1056.45691	20.28545	1351.94775	-1065.41235	61.65155	1198.07019	-994.35120	-183.59271	1224.23022	-1218.03479	-35.14333	1390.78088	-1319.26953	-53.39080	1219.50281	-1350.79541	-39.75832	1069.60742	-1366.19263	66.16831	1014.20636	-1333.77490	198.78329	990.85480	-1363.54846	168.28935	949.41846	-1373.65247	248.81189	940.99628	-907.44312	-52.74981	1376.28625	-817.26196	-153.27756	1192.07959	-810.46252	-179.01869	1072.06909	-776.38220	-191.41507	954.12152	-788.74420	-151.88884	818.73175	-753.93811	-195.91545	833.20203	-742.26892	-176.30400	754.00104	-1174.64124	9.49752	921.93219	-961.28906	32.56628	926.27478	-1103.13831	-170.62303	932.06946	-957.57513	-153.70889	930.38635	-1232.29504	-70.62264	591.51617	-1224.37854	-107.97277	459.91000	-1225.43250	-253.93956	337.05048	-1176.91260	-401.66763	171.95863	-1120.67468	-440.93002	188.69923	-1158.32068	-349.21826	32.17554	-910.69299	59.23250	601.68719	-949.26520	113.96987	456.15289	-941.52728	97.71296	279.19794	-995.22607	103.86106	75.13517	-1044.47473	54.54776	35.52823	-1005.29193	243.75984	42.99107	-1018.45447	37.99614	1696.23108	-3102.05542	1973.09436	1023.96906	-3140.84863	2012.46606	1022.04901 
66	0.650	-1106.35400	47.11278	1659.36731	-993.67487	60.37695	1662.32117	-1099.72412	-70.33807	1618.81812	-979.54028	-59.22594	1620.52075	-1063.30688	-111.11727	1422.66455	-1056.39185	-149.11256	1126.98999	-1055.25476	32.53552	1352.87598	-1064.62708	74.11260	1199.18616	-993.54468	-171.02103	1224.58472	-1216.72742	-23.21028	1391.88147	-1317.64832	-43.80607	1220.41016	-1348.62073	-31.88369	1070.29626	-1364.53406	72.74603	1012.42279	-1332.47913	205.15717	986.00769	-1362.06555	173.46529	945.38104	-1372.56934	253.57367	934.55481	-906.30701	-40.66585	1376.83752	-816.36353	-139.85812	1191.94800	-809.49524	-164.41670	1071.65308	-775.48663	-175.24770	953.58636	-788.18817	-134.34811	818.62195	-753.05652	-177.77791	832.68427	-741.69086	-157.81595	753.45435	-1173.24683	22.71177	922.79071	-960.34125	45.14462	927.77527	-1102.95996	-157.58881	933.15057	-957.29926	-140.70200	932.85150	-1233.46851	-51.51868	591.03021	-1226.83484	-86.62810	459.11688	-1227.67090	-234.54939	340.11221	-1180.30322	-385.52399	177.50038	-1123.84399	-422.74490	198.14113	-1157.84497	-345.49243	34.06575	-909.75146	72.50784	602.50720	-948.36145	122.08765	455.06155	-940.60895	101.89404	278.03241	-995.40070	104.74942	75.03638	-1044.28589	54.96687	35.86821	-1005.71716	244.56992	41.61217	-1015.75537	50.80904	1696.90771	-3102.05493	1973.12207	1023.40350	-3140.71069	2012.51672	1022.11414 
67	0.660	-1103.89124	59.46286	1660.36206	-991.27917	72.65666	1662.83459	-1097.48682	-57.85305	1619.71704	-977.40582	-46.95934	1620.97852	-1062.00513	-99.49899	1423.24634	-1055.91357	-136.70427	1127.82568	-1054.25562	44.82418	1353.74622	-1063.94263	86.28849	1200.13184	-992.73291	-158.55615	1225.12048	-1215.59875	-11.28519	1392.93433	-1316.11572	-34.24183	1221.26172	-1346.36255	-24.28012	1070.87292	-1362.42920	79.11438	1010.51349	-1331.05872	210.99742	980.85602	-1360.36975	178.06659	940.94257	-1371.06519	257.92480	927.90143	-905.19647	-28.38370	1377.56519	-815.55615	-126.24907	1191.90955	-808.46136	-149.70409	1071.40161	-774.54016	-158.95811	953.13037	-787.64728	-116.26033	818.70673	-752.31647	-160.04912	832.01208	-741.14368	-138.43445	753.13196	-1172.03821	35.57242	923.72272	-959.30939	57.26446	929.18988	-1102.67749	-144.95906	934.12836	-957.13867	-128.60481	935.41821	-1234.28162	-32.44621	590.57422	-1228.53186	-64.91133	458.29199	-1229.76465	-214.24887	342.57523	-1183.17004	-368.51770	183.43030	-1127.70203	-404.38922	207.78528	-1157.49194	-338.54196	38.25503	-908.60028	84.58084	603.25812	-947.34387	129.33719	453.82004	-940.11804	105.88183	277.24484	-995.66693	105.54235	74.98605	-1044.19250	55.10222	36.08878	-1006.07837	245.53325	40.72479	-1013.44244	62.91464	1697.30786	-3102.00977	1973.21655	1023.41852	-3140.81909	2012.53564	1022.11090 
68	0.670	-1101.61438	71.81396	1661.51086	-988.45447	84.75880	1663.25928	-1095.68811	-45.55701	1620.76001	-975.44055	-34.82100	1621.37231	-1060.94556	-87.59534	1424.08435	-1055.31555	-124.54010	1128.86914	-1053.38843	57.05514	1354.54529	-1063.44189	98.33238	1200.91956	-991.87421	-146.25455	1225.97119	-1214.69971	0.67286	1394.02820	-1314.77771	-24.59030	1222.13135	-1344.06372	-16.84694	1071.40381	-1360.46729	85.06342	1008.35876	-1329.56030	216.32416	975.42554	-1358.60352	182.21706	936.28741	-1369.48901	261.73007	921.09235	-904.23273	-16.02249	1378.18945	-814.74805	-112.50730	1191.99146	-807.37933	-134.97061	1071.22791	-773.62598	-142.37071	952.66095	-787.18628	-97.77333	818.88782	-751.59875	-141.51825	831.55573	-740.76587	-118.81473	752.86523	-1171.05664	47.96176	924.75500	-958.36841	69.11698	930.71588	-1102.40320	-132.57295	934.92651	-957.07178	-116.09844	937.17950	-1234.85657	-13.46666	590.22961	-1230.10681	-42.86285	457.57660	-1232.04468	-193.11121	344.62714	-1185.04272	-350.73267	190.43513	-1131.06519	-385.36655	217.68494	-1157.93005	-328.67038	43.81395	-907.76434	93.52896	603.67511	-946.32190	135.88222	453.17017	-939.84387	109.65778	277.07925	-995.80200	105.99386	75.02789	-1043.96558	55.19033	36.31366	-1006.55847	245.90598	40.10542	-1010.78607	74.82938	1697.87634	-3102.04785	1973.16296	1023.38708	-3140.65137	2012.48572	1022.03223 
69	0.680	-1099.56396	84.17616	1662.76196	-986.30298	96.90668	1663.86243	-1093.97546	-33.15063	1621.90356	-973.83380	-22.72179	1621.84143	-1059.87524	-75.27470	1425.31628	-1054.55811	-112.50755	1130.03259	-1052.70715	69.18343	1355.36694	-1063.02332	110.12667	1201.68164	-990.78613	-134.09941	1227.17407	-1213.90930	12.55726	1395.13196	-1313.51294	-14.82530	1223.08557	-1341.78162	-9.58689	1071.90332	-1358.49597	90.60171	1005.98236	-1328.04382	221.22304	969.73370	-1356.78125	185.77037	931.24542	-1368.00598	265.11545	914.32239	-903.39563	-3.33681	1378.99512	-813.82855	-98.59696	1192.13867	-806.33191	-120.05767	1071.09009	-772.67371	-125.68135	952.23932	-786.67639	-78.87400	819.22675	-750.96930	-122.79224	831.11768	-740.25879	-98.54289	752.93896	-1170.26343	60.05811	925.78619	-957.38165	80.75774	932.17090	-1102.09094	-120.47279	935.50635	-956.57654	-104.82775	938.91681	-1235.26416	5.36432	590.17798	-1231.31409	-20.42753	457.07669	-1234.53467	-171.25583	346.35516	-1186.22925	-331.63617	198.29437	-1132.91577	-366.02875	226.60901	-1159.79871	-315.51755	49.51738	-906.99786	100.26054	603.56860	-945.38678	142.03580	453.00302	-939.52020	113.18591	277.07813	-995.88556	106.36618	75.14186	-1043.89771	55.17860	36.37370	-1006.78802	246.37617	39.60971	-1008.23669	86.69598	1698.51428	-3102.06055	1973.04224	1023.56519	-3140.79565	2012.48389	1022.05389 
70	0.690	-1097.48999	96.54150	1664.10156	-984.56763	109.14303	1664.76355	-1092.55103	-20.83498	1623.29407	-972.26935	-10.51077	1622.49243	-1058.88025	-62.79018	1426.76233	-1053.67480	-100.71881	1131.42676	-1052.22729	81.25115	1356.38196	-1062.78186	121.91241	1202.47986	-989.48114	-122.13434	1228.67810	-1213.22717	24.36896	1396.26074	-1312.42908	-4.98637	1224.10205	-1339.45959	-2.37967	1072.45264	-1356.48572	95.93278	1003.61981	-1326.45422	225.65367	963.79181	-1354.88611	189.04683	926.22571	-1366.18237	267.95996	907.06165	-902.68964	9.31997	1379.90283	-812.76270	-84.59533	1192.39294	-805.19611	-105.17995	1071.08081	-771.83569	-108.75668	951.88013	-786.31299	-59.50986	819.79962	-750.45764	-103.24767	830.91138	-739.80658	-77.59894	753.23260	-1169.72314	71.84066	926.86462	-956.45154	92.17393	933.50842	-1101.73486	-108.71400	935.87408	-956.28558	-93.61694	940.10980	-1235.59363	24.15320	590.41400	-1232.34985	2.26431	456.99860	-1236.80896	-148.89377	347.88544	-1186.52771	-312.91705	205.57979	-1132.21643	-346.80215	233.49683	-1163.99780	-298.87994	55.68891	-906.27087	105.89333	603.43109	-944.75970	147.59378	452.64517	-939.35211	116.61707	277.10889	-995.91516	106.52541	75.04243	-1043.72607	54.97923	36.56136	-1006.87610	246.68204	39.16476	-1005.54755	98.91676	1699.48950	-3101.78760	1973.16687	1023.46771	-3140.63623	2012.57129	1022.13190 
71	0.700	-1095.64490	109.02205	1665.47717	-982.34631	121.34341	1665.55933	-1091.00525	-8.39242	1624.61963	-970.77185	1.67356	1623.37598	-1057.85852	-50.33900	1428.26929	-1052.84619	-88.89486	1132.83325	-1051.77429	93.28311	1357.44312	-1062.62683	133.63536	1203.33582	-988.12909	-110.24902	1230.36511	-1212.62183	36.07188	1397.45264	-1311.44080	4.83526	1225.24768	-1337.12439	4.80741	1073.16443	-1354.51147	100.99899	1001.23029	-1324.84363	229.61864	957.60956	-1353.07104	191.80115	921.04114	-1364.37439	270.25253	899.62183	-902.13629	21.95764	1380.90576	-811.57806	-70.52711	1192.78491	-804.14746	-90.28429	1071.13831	-770.98895	-91.61382	951.61212	-785.94995	-39.76287	820.68445	-749.96393	-83.51622	830.75079	-739.49457	-56.28822	753.72943	-1169.31458	83.43325	927.88855	-955.42987	103.34847	934.65839	-1101.30261	-97.15221	936.15234	-955.92908	-82.51440	941.27264	-1235.83557	43.23398	591.11176	-1232.79199	25.14921	457.46957	-1238.70178	-126.33916	349.70047	-1186.13916	-293.73105	212.41490	-1130.22388	-327.18283	238.92900	-1168.18665	-279.77368	61.94201	-905.93115	110.94366	603.14197	-944.19562	152.56360	452.13644	-939.00397	119.55523	277.06015	-995.97357	106.80486	75.04218	-1043.71265	55.18437	36.62184	-1007.06207	246.90129	38.81046	-1003.87646	111.16850	1700.39160	-3101.88086	1973.16040	1023.44580	-3140.73242	2012.55212	1022.10468 
72	0.710	-1094.14539	121.45896	1666.74170	-980.76056	133.62758	1666.35083	-1089.77393	4.01855	1626.00269	-969.53265	13.90617	1624.37231	-1057.01770	-38.04309	1429.71191	-1052.05774	-77.20089	1134.26208	-1051.50769	105.26217	1358.51343	-1062.52539	145.30217	1204.33337	-986.77838	-98.34153	1232.06226	-1212.17676	47.66819	1398.69739	-1310.49976	14.57577	1226.47437	-1334.81592	12.09062	1073.96155	-1352.53247	105.89706	998.95087	-1323.23340	233.19252	951.20532	-1351.34204	194.12720	915.77795	-1362.55383	272.04883	891.89819	-901.65906	34.58065	1381.93481	-810.35815	-56.37009	1193.39929	-803.06372	-75.52960	1071.39490	-770.11237	-74.33904	951.51788	-785.66937	-19.65808	821.77991	-749.31860	-63.66526	830.71454	-739.19104	-34.43430	754.55896	-1168.85413	95.02779	928.97974	-954.37598	114.31101	935.67419	-1100.89026	-85.77295	936.41577	-955.62701	-71.87724	942.35089	-1236.08264	62.56128	592.36664	-1233.42920	47.89446	458.73471	-1239.92053	-103.55003	352.18710	-1185.08191	-273.00558	218.37024	-1127.97974	-306.09583	243.21153	-1172.73035	-258.42654	67.47928	-905.67737	116.19423	602.88776	-943.71179	156.92633	451.46658	-938.86383	121.80080	276.81107	-996.11932	106.96777	75.01225	-1043.79382	55.20560	36.72916	-1007.29932	247.11913	38.50533	-1001.95056	123.37456	1701.55518	-3102.03564	1973.06982	1024.16980	-3140.58887	2012.54248	1022.09735 
